<svg width="50" height="50" viewBox="0 0 50 50" fill="none" xmlns="http://www.w3.org/2000/svg">
<g clip-path="url(#clip0_78_14)">
<path d="M24.0402 3.28195C24.3207 2.32287 25.6793 2.32287 25.9598 3.28195L30.5032 18.8177C30.5989 19.1451 30.8549 19.4011 31.1823 19.4968L46.718 24.0402C47.6771 24.3207 47.6771 25.6793 46.718 25.9598L31.1823 30.5032C30.8549 30.5989 30.5989 30.8549 30.5032 31.1823L25.9598 46.718C25.6793 47.6771 24.3207 47.6771 24.0402 46.718L19.4968 31.1823C19.4011 30.8549 19.1451 30.5989 18.8177 30.5032L3.28195 25.9598C2.32287 25.6793 2.32287 24.3207 3.28195 24.0402L18.8177 19.4968C19.1451 19.4011 19.4011 19.1451 19.4968 18.8177L24.0402 3.28195Z" fill="#D9D9D9"/>
</g>
<defs>
<clipPath id="clip0_78_14">
<rect width="50" height="50" fill="white"/>
</clipPath>
</defs>
</svg>
